<svg xmlns="http://www.w3.org/2000/svg" xmlns:xlink="http://www.w3.org/1999/xlink" width="500" zoomAndPan="magnify" viewBox="0 0 375 374.999991" height="500" preserveAspectRatio="xMidYMid meet" version="1.0"><defs><g/><clipPath id="859d21f6db"><path d="M 82.027344 83.003906 L 293 83.003906 L 293 224 L 82.027344 224 Z M 82.027344 83.003906 " clip-rule="nonzero"/></clipPath><clipPath id="62fa38b221"><path d="M 183 239 L 192 239 L 192 270.148438 L 183 270.148438 Z M 183 239 " clip-rule="nonzero"/></clipPath></defs><rect x="-37.5" width="450" fill="#ffffff" y="-37.499999" height="449.999989" fill-opacity="1"/><g clip-path="url(#859d21f6db)"><path fill="#69009a" d="M 82.027344 83.121094 C 82.84375 86.230469 83.488281 89.398438 84.496094 92.445312 C 86.480469 98.445312 88.332031 104.519531 90.863281 110.292969 C 93.472656 116.25 98.136719 120.511719 103.851562 123.75 C 124.613281 135.511719 145.296875 147.410156 166.007812 159.257812 C 166.613281 159.605469 167.195312 159.996094 167.707031 160.507812 C 142.96875 149.246094 118.898438 136.722656 95.296875 122.214844 C 95.628906 123.089844 95.734375 123.542969 95.953125 123.941406 C 99.726562 130.746094 103.566406 137.507812 107.289062 144.339844 C 110.703125 150.601562 116.179688 153.28125 122.996094 154.316406 C 134.421875 156.046875 145.796875 158.113281 157.191406 160.046875 C 160.769531 160.65625 164.34375 161.292969 167.902344 162.054688 C 150.058594 161.3125 132.390625 159.042969 114.589844 156.4375 C 115.609375 157.285156 116.636719 158.121094 117.644531 158.980469 C 121.875 162.589844 126.21875 166.074219 130.289062 169.863281 C 133.546875 172.890625 136.90625 173.433594 141.074219 172.015625 C 149.71875 169.074219 158.464844 166.425781 167.171875 163.65625 C 167.457031 163.566406 167.753906 163.511719 168.09375 163.597656 C 164.847656 165.117188 161.558594 166.558594 158.359375 168.167969 C 153.820312 170.449219 149.773438 173.441406 146.339844 177.191406 C 142.792969 181.0625 142.253906 185.292969 145.230469 189.535156 C 149.246094 195.246094 153.609375 200.71875 158.054688 206.253906 C 154.136719 189.671875 157.890625 175.378906 170.476562 163.664062 C 170.140625 164.285156 169.8125 164.917969 169.46875 165.542969 C 165.480469 172.855469 162.03125 180.375 160.859375 188.738281 C 160.023438 194.671875 160.921875 200.125 165.503906 204.425781 C 170.417969 209.035156 175.40625 213.5625 180.355469 218.132812 C 182.210938 219.84375 184.042969 221.582031 186.027344 223.253906 C 175.605469 204.746094 171.117188 184.792969 171.652344 163.585938 C 174.238281 172.046875 176.824219 180.507812 179.398438 188.976562 C 181.972656 197.433594 184.527344 205.894531 187.558594 214.347656 C 192.703125 197.425781 197.847656 180.503906 202.992188 163.578125 C 203.542969 184.742188 199.078125 204.65625 188.765625 223.265625 C 189.09375 222.984375 189.429688 222.710938 189.75 222.414062 C 190.085938 222.105469 190.390625 221.757812 190.730469 221.453125 C 195.863281 216.789062 200.839844 211.9375 206.175781 207.519531 C 213.789062 201.21875 215.46875 193.476562 212.96875 184.277344 C 211.171875 177.664062 208.457031 171.480469 205.171875 165.515625 C 204.890625 164.996094 204.59375 164.488281 204.324219 163.96875 C 204.273438 163.875 204.328125 163.730469 204.347656 163.355469 C 210.304688 168.921875 214.449219 175.382812 216.570312 183.109375 C 218.675781 190.796875 218.410156 198.472656 216.675781 206.289062 C 219.441406 202.773438 222.230469 199.261719 224.972656 195.71875 C 226.332031 193.964844 227.648438 192.167969 228.925781 190.351562 C 232.371094 185.464844 232.03125 181.09375 227.902344 176.734375 C 222.988281 171.554688 216.921875 168.136719 210.4375 165.371094 C 209.125 164.816406 207.816406 164.246094 206.617188 163.367188 C 211.722656 164.875 216.855469 166.320312 221.933594 167.914062 C 225.671875 169.082031 229.417969 170.277344 233.027344 171.777344 C 237.480469 173.621094 241.101562 172.9375 244.652344 169.601562 C 249.085938 165.445312 253.875 161.671875 258.507812 157.734375 C 258.996094 157.3125 259.484375 156.890625 259.921875 156.28125 C 242.269531 159.015625 224.601562 161.324219 206.738281 161.945312 C 213.460938 160.734375 220.179688 159.460938 226.921875 158.316406 C 235.867188 156.804688 244.835938 155.410156 253.792969 153.917969 C 259.21875 153.015625 263.714844 150.492188 266.519531 145.648438 C 270.769531 138.292969 274.832031 130.828125 278.972656 123.40625 C 279.085938 123.199219 279.125 122.957031 279.371094 122.203125 C 255.777344 136.707031 231.6875 149.246094 206.816406 160.304688 C 213.296875 156.503906 219.734375 152.636719 226.257812 148.917969 C 240.738281 140.660156 255.183594 132.332031 269.808594 124.332031 C 277.238281 120.265625 282.636719 114.570312 285.484375 106.734375 C 288.289062 99.03125 290.5 91.113281 292.972656 83.289062 C 292.773438 83.203125 292.582031 83.117188 292.382812 83.03125 C 292.144531 83.253906 291.847656 83.441406 291.667969 83.707031 C 280.527344 99.933594 265.886719 112.269531 249.019531 122.152344 C 237.910156 128.664062 226.867188 135.292969 215.738281 141.773438 C 210.273438 144.957031 207.6875 150.175781 205.441406 155.667969 C 204.601562 157.714844 203.996094 159.859375 203.199219 162.199219 C 200.257812 158.304688 198.746094 154.160156 198.976562 149.378906 C 199.0625 147.5625 199.285156 145.636719 198.8125 143.933594 C 197.253906 138.367188 192.875 135.929688 187.644531 134.722656 C 184.65625 134.035156 181.839844 134.3125 179.375 136.496094 C 178.792969 137.011719 177.671875 136.976562 176.789062 137.070312 C 172.980469 137.488281 171.269531 139.300781 171.738281 142.496094 C 177.402344 140.964844 181.324219 144.160156 181.117188 150.144531 C 180.902344 156.164062 176.714844 161.457031 171.464844 162.222656 C 170.699219 159.976562 170 157.683594 169.148438 155.449219 C 166.648438 148.910156 162.777344 143.683594 156.425781 140.132812 C 144.953125 133.730469 133.710938 126.921875 122.441406 120.164062 C 106.804688 110.796875 93.492188 98.882812 83.082031 83.839844 C 82.871094 83.539062 82.617188 83.257812 82.027344 83.121094 Z M 182.445312 139.460938 L 182.496094 137.964844 L 186.582031 138.960938 L 186.546875 139.402344 Z M 182.445312 139.460938 " fill-opacity="1" fill-rule="nonzero"/></g><path fill="#69009a" d="M 153.195312 253.136719 C 157.386719 253.136719 161.160156 253.339844 164.898438 253.070312 C 167.921875 252.855469 170.457031 251.234375 172.453125 248.929688 C 177.453125 243.164062 180.386719 236.367188 182.074219 229.023438 C 182.964844 225.136719 180.410156 219.734375 176.210938 216.183594 C 176.921875 217.875 177.480469 219.207031 178.035156 220.542969 C 179.722656 224.554688 179.445312 228.289062 177.085938 232.089844 C 171.796875 240.613281 164.363281 246.714844 155.816406 251.652344 C 155.054688 252.09375 154.285156 252.519531 153.195312 253.136719 Z M 153.195312 253.136719 " fill-opacity="1" fill-rule="nonzero"/><path fill="#69009a" d="M 221.082031 252.996094 C 219.035156 251.761719 216.957031 250.582031 214.953125 249.285156 C 208.023438 244.78125 202.097656 239.292969 197.640625 232.226562 C 195.171875 228.308594 194.914062 224.453125 196.695312 220.320312 C 197.226562 219.082031 197.757812 217.84375 198.351562 216.460938 C 194.289062 219.113281 191.675781 225.378906 192.761719 229.824219 C 194.277344 236.035156 196.824219 241.785156 200.585938 247 C 203.6875 251.292969 207.734375 253.535156 213.105469 253.34375 C 215.742188 253.246094 218.386719 253.328125 221.027344 253.328125 C 221.042969 253.214844 221.0625 253.105469 221.082031 252.996094 Z M 221.082031 252.996094 " fill-opacity="1" fill-rule="nonzero"/><g clip-path="url(#62fa38b221)"><path fill="#69009a" d="M 187.421875 270.074219 C 190.71875 265.324219 192.097656 260.328125 190.910156 254.75 C 189.8125 249.601562 188.714844 244.453125 187.617188 239.304688 C 187.457031 239.28125 187.296875 239.265625 187.136719 239.242188 C 186.902344 240.25 186.652344 241.253906 186.4375 242.265625 C 185.496094 246.589844 184.523438 250.914062 183.636719 255.25 C 182.605469 260.300781 184.109375 266.167969 187.421875 270.074219 Z M 187.421875 270.074219 " fill-opacity="1" fill-rule="nonzero"/></g><path fill="#69009a" d="M 184.597656 231.042969 C 182.367188 236.027344 180.160156 241.527344 177.488281 246.796875 C 174.796875 252.113281 170.925781 256.632812 166.453125 260.78125 C 171.902344 261.855469 177.785156 258.75 180.269531 253.476562 C 183.703125 246.179688 184.980469 238.453125 184.597656 231.042969 Z M 184.597656 231.042969 " fill-opacity="1" fill-rule="nonzero"/><path fill="#69009a" d="M 190.230469 230.425781 C 189.652344 238.3125 190.953125 245.847656 194.136719 253.011719 C 196.601562 258.554688 201.8125 261.484375 208.320312 260.929688 C 199.175781 252.425781 193.601562 242.070312 190.230469 230.425781 Z M 190.230469 230.425781 " fill-opacity="1" fill-rule="nonzero"/><path fill="#69009a" d="M 233.167969 226.699219 C 231.125 225.460938 229.042969 224.285156 227.039062 222.984375 C 220.109375 218.484375 214.183594 212.996094 209.726562 205.925781 C 207.257812 202.011719 207.003906 198.15625 208.78125 194.023438 C 209.3125 192.785156 209.847656 191.546875 210.441406 190.164062 C 206.375 192.816406 203.761719 199.078125 204.847656 203.527344 C 206.367188 209.738281 208.910156 215.488281 212.671875 220.699219 C 215.777344 224.996094 219.824219 227.238281 225.191406 227.042969 C 227.828125 226.949219 230.472656 227.027344 233.113281 227.027344 C 233.132812 226.917969 233.148438 226.808594 233.167969 226.699219 Z M 233.167969 226.699219 " fill-opacity="1" fill-rule="nonzero"/><path fill="#69009a" d="M 202.316406 204.128906 C 201.738281 212.015625 203.039062 219.550781 206.222656 226.714844 C 208.6875 232.257812 213.902344 235.1875 220.40625 234.632812 C 211.265625 226.128906 205.6875 215.769531 202.316406 204.128906 Z M 202.316406 204.128906 " fill-opacity="1" fill-rule="nonzero"/><path fill="#69009a" d="M 143.183594 226.699219 C 145.226562 225.460938 147.308594 224.285156 149.3125 222.984375 C 156.242188 218.484375 162.164062 212.996094 166.625 205.925781 C 169.09375 202.011719 169.347656 198.15625 167.570312 194.023438 C 167.039062 192.785156 166.503906 191.546875 165.910156 190.164062 C 169.972656 192.816406 172.589844 199.078125 171.503906 203.527344 C 169.984375 209.738281 167.441406 215.488281 163.679688 220.699219 C 160.574219 224.996094 156.527344 227.238281 151.160156 227.042969 C 148.523438 226.949219 145.878906 227.027344 143.238281 227.027344 C 143.21875 226.917969 143.203125 226.808594 143.183594 226.699219 Z M 143.183594 226.699219 " fill-opacity="1" fill-rule="nonzero"/><path fill="#69009a" d="M 174.035156 204.128906 C 174.613281 212.015625 173.3125 219.550781 170.128906 226.714844 C 167.667969 232.257812 162.453125 235.1875 155.945312 234.632812 C 165.089844 226.128906 170.664062 215.769531 174.035156 204.128906 Z M 174.035156 204.128906 " fill-opacity="1" fill-rule="nonzero"/><path fill="#ffffff" d="M 182.496094 139.402344 C 183.847656 139.402344 185.199219 139.402344 186.554688 139.402344 C 186.5625 139.253906 186.574219 139.109375 186.582031 138.964844 C 185.234375 138.851562 183.886719 138.738281 182.535156 138.625 C 182.523438 138.882812 182.507812 139.140625 182.496094 139.402344 Z M 182.496094 139.402344 " fill-opacity="1" fill-rule="nonzero"/><g fill="#000000" fill-opacity="1"><g transform="translate(126.83285, 123.621484)"><g><path d="M 2.9375 -5.9375 C 1.9375 -7.164062 1.4375 -8.269531 1.4375 -9.25 C 1.4375 -10.226562 2.265625 -11.519531 3.921875 -13.125 C 4.878906 -14.050781 5.894531 -14.515625 6.96875 -14.515625 C 8.039062 -14.515625 9.539062 -13.554688 11.46875 -11.640625 C 12 -10.984375 12.765625 -10.359375 13.765625 -9.765625 C 14.765625 -9.171875 15.6875 -8.875 16.53125 -8.875 C 20.101562 -8.875 21.890625 -10.332031 21.890625 -13.25 C 21.890625 -14.132812 21.398438 -14.875 20.421875 -15.46875 C 19.441406 -16.0625 18.222656 -16.488281 16.765625 -16.75 C 15.304688 -17.019531 13.726562 -17.453125 12.03125 -18.046875 C 10.34375 -18.648438 8.769531 -19.351562 7.3125 -20.15625 C 5.851562 -20.96875 4.632812 -22.242188 3.65625 -23.984375 C 2.675781 -25.734375 2.1875 -27.835938 2.1875 -30.296875 C 2.1875 -33.671875 3.441406 -36.613281 5.953125 -39.125 C 8.472656 -41.644531 11.898438 -42.90625 16.234375 -42.90625 C 18.546875 -42.90625 20.648438 -42.609375 22.546875 -42.015625 C 24.453125 -41.421875 25.769531 -40.816406 26.5 -40.203125 L 27.9375 -39.109375 C 29.125 -37.992188 29.71875 -37.050781 29.71875 -36.28125 C 29.71875 -35.507812 29.257812 -34.453125 28.34375 -33.109375 C 27.03125 -31.191406 25.679688 -30.234375 24.296875 -30.234375 C 23.492188 -30.234375 22.5 -30.617188 21.3125 -31.390625 C 21.195312 -31.460938 20.972656 -31.648438 20.640625 -31.953125 C 20.316406 -32.265625 20.019531 -32.519531 19.75 -32.71875 C 18.945312 -33.21875 17.921875 -33.46875 16.671875 -33.46875 C 15.421875 -33.46875 14.382812 -33.164062 13.5625 -32.5625 C 12.738281 -31.96875 12.328125 -31.144531 12.328125 -30.09375 C 12.328125 -29.039062 12.816406 -28.1875 13.796875 -27.53125 C 14.773438 -26.875 15.992188 -26.429688 17.453125 -26.203125 C 18.910156 -25.972656 20.503906 -25.617188 22.234375 -25.140625 C 23.960938 -24.660156 25.554688 -24.070312 27.015625 -23.375 C 28.472656 -22.6875 29.691406 -21.488281 30.671875 -19.78125 C 31.648438 -18.070312 32.140625 -15.96875 32.140625 -13.46875 C 32.140625 -10.976562 31.640625 -8.78125 30.640625 -6.875 C 29.640625 -4.976562 28.332031 -3.507812 26.71875 -2.46875 C 23.613281 -0.4375 20.296875 0.578125 16.765625 0.578125 C 14.953125 0.578125 13.238281 0.359375 11.625 -0.078125 C 10.019531 -0.523438 8.71875 -1.078125 7.71875 -1.734375 C 5.6875 -2.960938 4.265625 -4.148438 3.453125 -5.296875 Z M 2.9375 -5.9375 "/></g></g></g><g fill="#000000" fill-opacity="1"><g transform="translate(162.126455, 123.621484)"><g><path d="M 28.390625 -40.65625 C 28.703125 -41.238281 29.222656 -41.644531 29.953125 -41.875 C 30.679688 -42.101562 31.601562 -42.21875 32.71875 -42.21875 C 33.832031 -42.21875 34.710938 -42.117188 35.359375 -41.921875 C 36.015625 -41.734375 36.515625 -41.503906 36.859375 -41.234375 C 37.203125 -40.960938 37.472656 -40.578125 37.671875 -40.078125 C 37.859375 -39.429688 37.953125 -38.4375 37.953125 -37.09375 L 37.953125 -5.125 C 37.953125 -4.238281 37.921875 -3.570312 37.859375 -3.125 C 37.804688 -2.6875 37.628906 -2.179688 37.328125 -1.609375 C 36.785156 -0.578125 35.285156 -0.0625 32.828125 -0.0625 C 30.140625 -0.0625 28.566406 -0.769531 28.109375 -2.1875 C 27.878906 -2.84375 27.765625 -3.84375 27.765625 -5.1875 L 27.765625 -16.875 L 12.5 -16.875 L 12.5 -5.125 C 12.5 -4.238281 12.46875 -3.570312 12.40625 -3.125 C 12.351562 -2.6875 12.171875 -2.179688 11.859375 -1.609375 C 11.328125 -0.578125 9.832031 -0.0625 7.375 -0.0625 C 4.6875 -0.0625 3.113281 -0.769531 2.65625 -2.1875 C 2.414062 -2.84375 2.296875 -3.84375 2.296875 -5.1875 L 2.296875 -37.140625 C 2.296875 -38.023438 2.320312 -38.6875 2.375 -39.125 C 2.4375 -39.570312 2.625 -40.082031 2.9375 -40.65625 C 3.476562 -41.695312 4.972656 -42.21875 7.421875 -42.21875 C 10.117188 -42.21875 11.710938 -41.503906 12.203125 -40.078125 C 12.398438 -39.429688 12.5 -38.4375 12.5 -37.09375 L 12.5 -25.34375 L 27.765625 -25.34375 L 27.765625 -37.140625 C 27.765625 -38.023438 27.789062 -38.6875 27.84375 -39.125 C 27.90625 -39.570312 28.085938 -40.082031 28.390625 -40.65625 Z M 28.390625 -40.65625 "/></g></g></g><g fill="#000000" fill-opacity="1"><g transform="translate(204.098548, 123.621484)"><g><path d="M 26.671875 -39.21875 L 42.21875 -7.078125 C 42.875 -5.773438 43.203125 -4.796875 43.203125 -4.140625 C 43.203125 -2.765625 42.085938 -1.519531 39.859375 -0.40625 C 38.546875 0.25 37.515625 0.578125 36.765625 0.578125 C 36.023438 0.578125 35.410156 0.40625 34.921875 0.0625 C 34.441406 -0.28125 34.097656 -0.644531 33.890625 -1.03125 C 33.679688 -1.414062 33.382812 -1.992188 33 -2.765625 L 30 -8.984375 L 14.046875 -8.984375 L 11.0625 -2.765625 C 10.675781 -1.992188 10.375 -1.4375 10.15625 -1.09375 C 9.945312 -0.75 9.601562 -0.394531 9.125 -0.03125 C 8.644531 0.332031 8.03125 0.515625 7.28125 0.515625 C 6.53125 0.515625 5.503906 0.191406 4.203125 -0.453125 C 1.972656 -1.535156 0.859375 -2.765625 0.859375 -4.140625 C 0.859375 -4.796875 1.1875 -5.773438 1.84375 -7.078125 L 17.390625 -39.28125 C 17.816406 -40.164062 18.460938 -40.875 19.328125 -41.40625 C 20.191406 -41.945312 21.101562 -42.21875 22.0625 -42.21875 C 24.132812 -42.21875 25.671875 -41.21875 26.671875 -39.21875 Z M 22 -25.40625 L 18.203125 -17.515625 L 25.859375 -17.515625 Z M 22 -25.40625 "/></g></g></g><g fill="#000000" fill-opacity="1"><g transform="translate(96.876438, 297.368137)"><g><path d="M 8.171875 -6.671875 L 19.765625 -6.671875 C 20.347656 -6.671875 20.78125 -6.648438 21.0625 -6.609375 C 21.351562 -6.566406 21.6875 -6.445312 22.0625 -6.25 C 22.738281 -5.894531 23.078125 -4.914062 23.078125 -3.3125 C 23.078125 -1.550781 22.613281 -0.519531 21.6875 -0.21875 C 21.257812 -0.0703125 20.609375 0 19.734375 0 L 4.8125 0 C 3.0625 0 2.035156 -0.476562 1.734375 -1.4375 C 1.578125 -1.832031 1.5 -2.46875 1.5 -3.34375 L 1.5 -24.28125 C 1.5 -25.5625 1.738281 -26.4375 2.21875 -26.90625 C 2.695312 -27.375 3.601562 -27.609375 4.9375 -27.609375 L 19.765625 -27.609375 C 20.347656 -27.609375 20.78125 -27.585938 21.0625 -27.546875 C 21.351562 -27.503906 21.6875 -27.382812 22.0625 -27.1875 C 22.738281 -26.832031 23.078125 -25.851562 23.078125 -24.25 C 23.078125 -22.488281 22.613281 -21.457031 21.6875 -21.15625 C 21.257812 -21.007812 20.609375 -20.9375 19.734375 -20.9375 L 8.171875 -20.9375 L 8.171875 -17.140625 L 15.625 -17.140625 C 16.207031 -17.140625 16.640625 -17.117188 16.921875 -17.078125 C 17.210938 -17.035156 17.546875 -16.914062 17.921875 -16.71875 C 18.597656 -16.363281 18.9375 -15.382812 18.9375 -13.78125 C 18.9375 -12.019531 18.460938 -10.988281 17.515625 -10.6875 C 17.085938 -10.539062 16.429688 -10.46875 15.546875 -10.46875 L 8.171875 -10.46875 Z M 8.171875 -6.671875 "/></g></g></g><g fill="#000000" fill-opacity="1"><g transform="translate(120.889053, 297.368137)"><g><path d="M 30.84375 -26.546875 C 31.039062 -26.171875 31.15625 -25.832031 31.1875 -25.53125 C 31.226562 -25.226562 31.25 -24.789062 31.25 -24.21875 L 31.25 -3.3125 C 31.25 -1.582031 30.773438 -0.566406 29.828125 -0.265625 C 29.347656 -0.109375 28.742188 -0.03125 28.015625 -0.03125 C 27.285156 -0.03125 26.707031 -0.09375 26.28125 -0.21875 C 25.851562 -0.351562 25.523438 -0.503906 25.296875 -0.671875 C 25.078125 -0.847656 24.90625 -1.101562 24.78125 -1.4375 C 24.65625 -1.863281 24.59375 -2.515625 24.59375 -3.390625 L 24.59375 -16 C 23.957031 -15.226562 23.035156 -13.992188 21.828125 -12.296875 C 20.628906 -10.597656 19.863281 -9.535156 19.53125 -9.109375 C 19.207031 -8.679688 18.984375 -8.382812 18.859375 -8.21875 C 18.734375 -8.0625 18.425781 -7.835938 17.9375 -7.546875 C 17.445312 -7.253906 16.921875 -7.109375 16.359375 -7.109375 C 15.796875 -7.109375 15.28125 -7.238281 14.8125 -7.5 C 14.351562 -7.769531 14.019531 -8.03125 13.8125 -8.28125 L 13.515625 -8.703125 C 13.015625 -9.328125 12.023438 -10.660156 10.546875 -12.703125 C 9.066406 -14.753906 8.265625 -15.851562 8.140625 -16 L 8.140625 -3.3125 C 8.140625 -2.738281 8.117188 -2.304688 8.078125 -2.015625 C 8.035156 -1.722656 7.914062 -1.398438 7.71875 -1.046875 C 7.34375 -0.367188 6.363281 -0.03125 4.78125 -0.03125 C 3.25 -0.03125 2.296875 -0.367188 1.921875 -1.046875 C 1.722656 -1.398438 1.601562 -1.726562 1.5625 -2.03125 C 1.519531 -2.332031 1.5 -2.785156 1.5 -3.390625 L 1.5 -24.28125 C 1.5 -24.863281 1.519531 -25.296875 1.5625 -25.578125 C 1.601562 -25.867188 1.722656 -26.203125 1.921875 -26.578125 C 2.296875 -27.234375 3.273438 -27.5625 4.859375 -27.5625 C 5.535156 -27.5625 6.117188 -27.476562 6.609375 -27.3125 C 7.097656 -27.15625 7.414062 -26.988281 7.5625 -26.8125 L 7.796875 -26.578125 L 16.34375 -15.359375 C 20.613281 -21.015625 23.460938 -24.742188 24.890625 -26.546875 C 25.316406 -27.222656 26.328125 -27.5625 27.921875 -27.5625 C 29.515625 -27.5625 30.488281 -27.222656 30.84375 -26.546875 Z M 30.84375 -26.546875 "/></g></g></g><g fill="#000000" fill-opacity="1"><g transform="translate(153.633519, 297.368137)"><g><path d="M 21.875 -22.03125 C 22.53125 -20.695312 22.859375 -19.210938 22.859375 -17.578125 C 22.859375 -15.953125 22.53125 -14.476562 21.875 -13.15625 C 21.226562 -11.84375 20.390625 -10.796875 19.359375 -10.015625 C 17.273438 -8.410156 15.113281 -7.609375 12.875 -7.609375 L 8.171875 -7.609375 L 8.171875 -3.34375 C 8.171875 -2.769531 8.148438 -2.335938 8.109375 -2.046875 C 8.078125 -1.765625 7.957031 -1.429688 7.75 -1.046875 C 7.40625 -0.367188 6.425781 -0.03125 4.8125 -0.03125 C 3.0625 -0.03125 2.035156 -0.5 1.734375 -1.4375 C 1.578125 -1.863281 1.5 -2.515625 1.5 -3.390625 L 1.5 -24.28125 C 1.5 -24.863281 1.519531 -25.296875 1.5625 -25.578125 C 1.601562 -25.867188 1.722656 -26.203125 1.921875 -26.578125 C 2.273438 -27.265625 3.253906 -27.609375 4.859375 -27.609375 L 12.921875 -27.609375 C 15.128906 -27.609375 17.273438 -26.800781 19.359375 -25.1875 C 20.390625 -24.414062 21.226562 -23.363281 21.875 -22.03125 Z M 12.921875 -14.265625 C 13.671875 -14.265625 14.410156 -14.539062 15.140625 -15.09375 C 15.867188 -15.644531 16.234375 -16.472656 16.234375 -17.578125 C 16.234375 -18.691406 15.867188 -19.53125 15.140625 -20.09375 C 14.410156 -20.65625 13.65625 -20.9375 12.875 -20.9375 L 8.171875 -20.9375 L 8.171875 -14.265625 Z M 12.921875 -14.265625 "/></g></g></g><g fill="#000000" fill-opacity="1"><g transform="translate(177.420301, 297.368137)"><g><path d="M 8.171875 -6.671875 L 19.765625 -6.671875 C 20.347656 -6.671875 20.78125 -6.648438 21.0625 -6.609375 C 21.351562 -6.566406 21.6875 -6.445312 22.0625 -6.25 C 22.738281 -5.894531 23.078125 -4.914062 23.078125 -3.3125 C 23.078125 -1.550781 22.613281 -0.519531 21.6875 -0.21875 C 21.257812 -0.0703125 20.609375 0 19.734375 0 L 4.8125 0 C 3.0625 0 2.035156 -0.476562 1.734375 -1.4375 C 1.578125 -1.832031 1.5 -2.46875 1.5 -3.34375 L 1.5 -24.28125 C 1.5 -25.5625 1.738281 -26.4375 2.21875 -26.90625 C 2.695312 -27.375 3.601562 -27.609375 4.9375 -27.609375 L 19.765625 -27.609375 C 20.347656 -27.609375 20.78125 -27.585938 21.0625 -27.546875 C 21.351562 -27.503906 21.6875 -27.382812 22.0625 -27.1875 C 22.738281 -26.832031 23.078125 -25.851562 23.078125 -24.25 C 23.078125 -22.488281 22.613281 -21.457031 21.6875 -21.15625 C 21.257812 -21.007812 20.609375 -20.9375 19.734375 -20.9375 L 8.171875 -20.9375 L 8.171875 -17.140625 L 15.625 -17.140625 C 16.207031 -17.140625 16.640625 -17.117188 16.921875 -17.078125 C 17.210938 -17.035156 17.546875 -16.914062 17.921875 -16.71875 C 18.597656 -16.363281 18.9375 -15.382812 18.9375 -13.78125 C 18.9375 -12.019531 18.460938 -10.988281 17.515625 -10.6875 C 17.085938 -10.539062 16.429688 -10.46875 15.546875 -10.46875 L 8.171875 -10.46875 Z M 8.171875 -6.671875 "/></g></g></g><g fill="#000000" fill-opacity="1"><g transform="translate(201.432916, 297.368137)"><g><path d="M 22.625 -4.671875 C 23.007812 -3.765625 23.203125 -3.113281 23.203125 -2.71875 C 23.203125 -1.757812 22.421875 -0.953125 20.859375 -0.296875 C 20.054688 0.046875 19.410156 0.21875 18.921875 0.21875 C 18.429688 0.21875 18.03125 0.101562 17.71875 -0.125 C 17.40625 -0.363281 17.171875 -0.609375 17.015625 -0.859375 C 16.765625 -1.335938 15.785156 -3.613281 14.078125 -7.6875 L 12.921875 -7.609375 L 8.171875 -7.609375 L 8.171875 -3.34375 C 8.171875 -2.769531 8.148438 -2.335938 8.109375 -2.046875 C 8.078125 -1.765625 7.957031 -1.429688 7.75 -1.046875 C 7.40625 -0.367188 6.425781 -0.03125 4.8125 -0.03125 C 3.0625 -0.03125 2.035156 -0.5 1.734375 -1.4375 C 1.578125 -1.863281 1.5 -2.515625 1.5 -3.390625 L 1.5 -24.28125 C 1.5 -24.863281 1.519531 -25.296875 1.5625 -25.578125 C 1.601562 -25.867188 1.722656 -26.203125 1.921875 -26.578125 C 2.273438 -27.265625 3.253906 -27.609375 4.859375 -27.609375 L 12.984375 -27.609375 C 15.203125 -27.609375 17.351562 -26.800781 19.4375 -25.1875 C 20.4375 -24.414062 21.257812 -23.363281 21.90625 -22.03125 C 22.5625 -20.695312 22.890625 -19.210938 22.890625 -17.578125 C 22.890625 -14.742188 21.953125 -12.410156 20.078125 -10.578125 C 20.628906 -9.242188 21.476562 -7.273438 22.625 -4.671875 Z M 8.171875 -14.265625 L 12.984375 -14.265625 C 13.710938 -14.265625 14.441406 -14.539062 15.171875 -15.09375 C 15.898438 -15.644531 16.265625 -16.472656 16.265625 -17.578125 C 16.265625 -18.691406 15.898438 -19.53125 15.171875 -20.09375 C 14.441406 -20.65625 13.691406 -20.9375 12.921875 -20.9375 L 8.171875 -20.9375 Z M 8.171875 -14.265625 "/></g></g></g><g fill="#000000" fill-opacity="1"><g transform="translate(225.182055, 297.368137)"><g><path d="M 14.453125 -27.9375 C 18.171875 -27.9375 21.398438 -26.59375 24.140625 -23.90625 C 26.878906 -21.21875 28.25 -17.882812 28.25 -13.90625 C 28.25 -9.9375 26.941406 -6.550781 24.328125 -3.75 C 21.710938 -0.945312 18.5 0.453125 14.6875 0.453125 C 10.875 0.453125 7.628906 -0.925781 4.953125 -3.6875 C 2.273438 -6.445312 0.9375 -9.738281 0.9375 -13.5625 C 0.9375 -15.644531 1.3125 -17.59375 2.0625 -19.40625 C 2.820312 -21.226562 3.828125 -22.753906 5.078125 -23.984375 C 6.335938 -25.210938 7.78125 -26.175781 9.40625 -26.875 C 11.039062 -27.582031 12.722656 -27.9375 14.453125 -27.9375 Z M 7.609375 -13.734375 C 7.609375 -11.503906 8.328125 -9.691406 9.765625 -8.296875 C 11.210938 -6.910156 12.828125 -6.21875 14.609375 -6.21875 C 16.390625 -6.21875 17.992188 -6.894531 19.421875 -8.25 C 20.859375 -9.601562 21.578125 -11.421875 21.578125 -13.703125 C 21.578125 -15.992188 20.851562 -17.828125 19.40625 -19.203125 C 17.96875 -20.585938 16.359375 -21.28125 14.578125 -21.28125 C 12.796875 -21.28125 11.1875 -20.582031 9.75 -19.1875 C 8.320312 -17.789062 7.609375 -15.972656 7.609375 -13.734375 Z M 7.609375 -13.734375 "/></g></g></g><g fill="#000000" fill-opacity="1"><g transform="translate(254.350971, 297.368137)"><g><path d="M 22.625 -4.671875 C 23.007812 -3.765625 23.203125 -3.113281 23.203125 -2.71875 C 23.203125 -1.757812 22.421875 -0.953125 20.859375 -0.296875 C 20.054688 0.046875 19.410156 0.21875 18.921875 0.21875 C 18.429688 0.21875 18.03125 0.101562 17.71875 -0.125 C 17.40625 -0.363281 17.171875 -0.609375 17.015625 -0.859375 C 16.765625 -1.335938 15.785156 -3.613281 14.078125 -7.6875 L 12.921875 -7.609375 L 8.171875 -7.609375 L 8.171875 -3.34375 C 8.171875 -2.769531 8.148438 -2.335938 8.109375 -2.046875 C 8.078125 -1.765625 7.957031 -1.429688 7.75 -1.046875 C 7.40625 -0.367188 6.425781 -0.03125 4.8125 -0.03125 C 3.0625 -0.03125 2.035156 -0.5 1.734375 -1.4375 C 1.578125 -1.863281 1.5 -2.515625 1.5 -3.390625 L 1.5 -24.28125 C 1.5 -24.863281 1.519531 -25.296875 1.5625 -25.578125 C 1.601562 -25.867188 1.722656 -26.203125 1.921875 -26.578125 C 2.273438 -27.265625 3.253906 -27.609375 4.859375 -27.609375 L 12.984375 -27.609375 C 15.203125 -27.609375 17.351562 -26.800781 19.4375 -25.1875 C 20.4375 -24.414062 21.257812 -23.363281 21.90625 -22.03125 C 22.5625 -20.695312 22.890625 -19.210938 22.890625 -17.578125 C 22.890625 -14.742188 21.953125 -12.410156 20.078125 -10.578125 C 20.628906 -9.242188 21.476562 -7.273438 22.625 -4.671875 Z M 8.171875 -14.265625 L 12.984375 -14.265625 C 13.710938 -14.265625 14.441406 -14.539062 15.171875 -15.09375 C 15.898438 -15.644531 16.265625 -16.472656 16.265625 -17.578125 C 16.265625 -18.691406 15.898438 -19.53125 15.171875 -20.09375 C 14.441406 -20.65625 13.691406 -20.9375 12.921875 -20.9375 L 8.171875 -20.9375 Z M 8.171875 -14.265625 "/></g></g></g></svg>